<svg xmlns="http://www.w3.org/2000/svg" viewBox="0 0 427.32 422.68"><defs><style>.cls-1{fill:#f5f5f5;}.cls-2{fill:#e0e0e0;}.cls-3{fill:#ebebeb;}.cls-4{fill:#263238;}.cls-5{fill:#e8505b;}.cls-6{opacity:0.4;}.cls-7{opacity:0.2;}.cls-8{fill:#fafafa;}.cls-9{fill:#455a64;}.cls-10{fill:#fff;}.cls-11{opacity:0.3;}.cls-12{fill:#b78876;}.cls-13{fill:#aa6550;}</style></defs><g id="Layer_2" data-name="Layer 2"><g id="Background_Complete" data-name="Background Complete"><path class="cls-1" d="M334.86,418.27c-22.11-15.44-27.13-44.12-26.25-69.89.14-4.3-.33-8.84,1.72-12.61s6.82-6.36,10.67-4.55c3.19,1.51,4.59,5.23,6.37,8.3a25.29,25.29,0,0,0,10.09,9.64c2.74,1.42,6.13,2.29,8.84.8,3.71-2,4.15-7.18,4.12-11.46l-.15-23.92c0-4.28,0-8.65,1.29-12.71s4.27-7.84,8.34-9,9.11,1.21,10,5.4c.36,1.74,0,3.55.12,5.33s.95,3.74,2.63,4.23,3.42-.71,4.7-2c4.42-4.32,7.42-9.89,10.22-15.42s5.52-11.2,9.52-15.92,9.55-8.44,15.68-8.79,12.66,3.44,14.21,9.45-2,12.16-5.8,17a95.82,95.82,0,0,1-19.88,19c-1.35,1-2.82,2-3.33,3.57-.93,2.85,1.77,5.69,4.59,6.63,3.19,1.06,6.65.73,10,1.12s7,1.86,8.21,5c1.75,4.37-1.91,9-5.51,12a81.86,81.86,0,0,1-24.21,14c-3.15,1.15-6.46,2.16-9,4.37s-4.07,6.06-2.54,9.07,5.47,4,8.77,3.37,6.25-2.4,9.39-3.59c5.88-2.22,13.48-1.81,17.24,3.27,2.48,3.34,2.7,8,1.44,12s-3.79,7.41-6.48,10.57c-9.43,11.06-21.49,20-35.14,24.69s-26.28,6-39.83,1"/><path class="cls-2" d="M341.51,402.12a383.54,383.54,0,0,1,15.22-41.28q2.31-5.38,4.55-10.62c1.5-3.48,3-6.93,4.65-10.22a191.76,191.76,0,0,1,10.64-18.34c3.66-5.66,7.35-10.91,10.83-15.79s6.84-9.36,10.06-13.31A150.71,150.71,0,0,1,414,275.05c2.11-1.91,3.79-3.34,5-4.29l1.32-1.07a3.2,3.2,0,0,1,.47-.35,3.7,3.7,0,0,1-.42.41l-1.27,1.13c-1.12,1-2.77,2.46-4.85,4.39a160.62,160.62,0,0,0-16.34,17.65c-3.19,4-6.5,8.45-10,13.34s-7.12,10.14-10.76,15.81a196.32,196.32,0,0,0-10.56,18.28c-1.64,3.27-3.12,6.7-4.62,10.19s-3,7-4.54,10.61a394.82,394.82,0,0,0-15.25,41.18"/><path class="cls-2" d="M366.15,340a8.81,8.81,0,0,1-.42-1.83c-.22-1.18-.49-2.9-.79-5-.61-4.26-1.24-10.17-1.92-16.69S361.63,304,361,299.77c-.32-2.12-.61-3.84-.82-5a9.18,9.18,0,0,1-.24-1.86,7.69,7.69,0,0,1,.54,1.8c.31,1.16.67,2.87,1.07,5,.81,4.23,1.62,10.13,2.3,16.66S365,328.59,365.49,333c.22,2,.4,3.7.55,5.06A8.23,8.23,0,0,1,366.15,340Z"/><path class="cls-2" d="M421.17,329.69a13.2,13.2,0,0,1-2.2.26c-1.41.13-3.45.3-6,.59-5,.54-12,1.54-19.58,3s-14.42,3.05-19.32,4.35c-2.46.63-4.43,1.2-5.8,1.58a12.12,12.12,0,0,1-2.15.53,12.2,12.2,0,0,1,2.06-.82c1.34-.48,3.29-1.13,5.74-1.83,4.88-1.45,11.71-3.14,19.33-4.59A192.41,192.41,0,0,1,413,330c2.53-.22,4.58-.31,6-.34A11.27,11.27,0,0,1,421.17,329.69Z"/><path class="cls-2" d="M342.19,401.1a2.48,2.48,0,0,1-.38-.67c-.25-.54-.56-1.19-.94-2-.81-1.73-1.92-4.27-3.24-7.42-2.65-6.3-6.05-15.12-9.66-24.91s-6.92-18.62-9.44-25c-1.23-3.09-2.25-5.63-3-7.51-.33-.82-.59-1.5-.81-2.05a2.84,2.84,0,0,1-.23-.74,3.41,3.41,0,0,1,.38.67c.25.54.56,1.2.94,2,.81,1.73,1.91,4.27,3.24,7.42,2.65,6.3,6,15.13,9.66,24.91s6.92,18.63,9.43,25c1.24,3.08,2.25,5.62,3,7.51.32.82.59,1.49.81,2.05A3.48,3.48,0,0,1,342.19,401.1Z"/><path class="cls-2" d="M415.29,377.54a2.63,2.63,0,0,1-.72.3l-2.13.71-7.82,2.54c-6.61,2.14-15.71,5.21-25.75,8.61s-19.19,6.39-25.84,8.39c-3.33,1-6,1.79-7.91,2.3L343,401a2.66,2.66,0,0,1-.77.14,3.77,3.77,0,0,1,.72-.3l2.13-.71,7.82-2.53c6.61-2.15,15.71-5.21,25.76-8.62s19.17-6.38,25.83-8.39c3.33-1,6-1.79,7.91-2.29l2.16-.57A3.6,3.6,0,0,1,415.29,377.54Z"/><path class="cls-2" d="M50.44,77.23l.12,2.15S62,74.58,68.83,78.09h0a1.48,1.48,0,0,0,1.17.77l2.84.26a1.49,1.49,0,0,0,1.45-.86h0A16.45,16.45,0,0,1,88,78.74l2.65,1.2L85.5,52.67,52.84,46.41Z"/><path class="cls-3" d="M48.61,74.21l.11,3.87S60,71.32,71.37,78.3L68.49,59.71S49.47,70.27,48.61,74.21Z"/><path class="cls-1" d="M46.47,46.21s13.58-10.44,23.84,4.13l1.06,28S59,65.7,47.35,75Z"/><path class="cls-3" d="M71.37,78.3s11.7-7.46,20.16.45L89.09,53.22,70.35,51.31Z"/><path class="cls-1" d="M70.29,50.37s4-9,12.62-8.16L88.4,43,91.34,68.6s-13.45-1.54-20,9.72Z"/><path class="cls-2" d="M71.37,78.3a5.47,5.47,0,0,1-.12-1.09c0-.8-.1-1.8-.16-3-.12-2.61-.27-6-.43-9.84l-.43-9.85c0-1.18-.09-2.18-.13-3a5.49,5.49,0,0,1,0-1.1,5.21,5.21,0,0,1,.17,1.09c.08.7.17,1.71.27,3,.2,2.52.4,6,.56,9.85s.26,7.33.3,9.85c0,1.27,0,2.29,0,3A5.31,5.31,0,0,1,71.37,78.3Z"/><path class="cls-2" d="M85.48,47.18c0,.09-.87-.07-2.27,0A14.5,14.5,0,0,0,78,48.25a14.27,14.27,0,0,0-4.48,3c-1,1-1.47,1.71-1.54,1.66s.07-.21.28-.55a9.33,9.33,0,0,1,1-1.34,13,13,0,0,1,10-4.21,9.66,9.66,0,0,1,1.67.19C85.28,47.09,85.49,47.15,85.48,47.18Z"/><path class="cls-2" d="M86.2,50.09c0,.08-.88-.08-2.27-.05a14.34,14.34,0,0,0-5.27,1.12,14.56,14.56,0,0,0-4.48,3c-1,1-1.47,1.72-1.54,1.67a1.87,1.87,0,0,1,.29-.55,9.31,9.31,0,0,1,1-1.34,13.09,13.09,0,0,1,10-4.22,9.5,9.5,0,0,1,1.68.2A1.88,1.88,0,0,1,86.2,50.09Z"/><path class="cls-2" d="M86.37,53.26c0,.09-.87-.07-2.27,0a14.5,14.5,0,0,0-5.26,1.12,14.27,14.27,0,0,0-4.48,3c-1,1-1.47,1.71-1.54,1.66s.07-.21.28-.55a9.33,9.33,0,0,1,1-1.33,13.06,13.06,0,0,1,4.54-3.2,12.9,12.9,0,0,1,5.45-1,9.66,9.66,0,0,1,1.67.19C86.17,53.17,86.38,53.23,86.37,53.26Z"/><path class="cls-2" d="M87,56.21c0,.08-.87-.08-2.26-.05a14.3,14.3,0,0,0-5.27,1.12,14.56,14.56,0,0,0-4.48,3c-1,1-1.47,1.72-1.54,1.67a2,2,0,0,1,.28-.55,9,9,0,0,1,1-1.34,12.91,12.91,0,0,1,4.53-3.19,13.11,13.11,0,0,1,5.45-1,8.52,8.52,0,0,1,1.67.2C86.77,56.12,87,56.18,87,56.21Z"/><path class="cls-2" d="M87.67,59.32c0,.08-.88-.08-2.27-.06a14.24,14.24,0,0,0-9.75,4.12c-1,1-1.47,1.71-1.54,1.66a2,2,0,0,1,.29-.55,9.33,9.33,0,0,1,1-1.33,13,13,0,0,1,10-4.22,8.52,8.52,0,0,1,1.67.2C87.46,59.22,87.67,59.28,87.67,59.32Z"/><path class="cls-2" d="M88.57,62.79c0,.08-.95-.09-2.46,0a17.49,17.49,0,0,0-2.64.3,21,21,0,0,0-3.12.9,19.84,19.84,0,0,0-2.92,1.42A14.92,14.92,0,0,0,75.3,67c-1.13,1-1.65,1.82-1.72,1.77a2.05,2.05,0,0,1,.32-.59,4.24,4.24,0,0,1,.48-.64,6.78,6.78,0,0,1,.7-.77A13.2,13.2,0,0,1,77.2,65a17.64,17.64,0,0,1,3-1.5,18,18,0,0,1,3.21-.88,14.43,14.43,0,0,1,2.71-.21,8,8,0,0,1,1,.06,4.6,4.6,0,0,1,.78.12C88.35,62.7,88.58,62.76,88.57,62.79Z"/><path class="cls-2" d="M88.7,65.58c0,.08-1-.1-2.47,0a16.13,16.13,0,0,0-2.64.37,20.91,20.91,0,0,0-3.1,1,20.53,20.53,0,0,0-2.89,1.53,16.56,16.56,0,0,0-2.1,1.63c-1.11,1-1.64,1.84-1.71,1.79a2.05,2.05,0,0,1,.32-.59,4.28,4.28,0,0,1,.47-.64,6.86,6.86,0,0,1,.7-.79,14.57,14.57,0,0,1,2.09-1.75,18.9,18.9,0,0,1,2.94-1.6,18.64,18.64,0,0,1,3.19-1,14.25,14.25,0,0,1,2.72-.28,6.93,6.93,0,0,1,1,0,6.08,6.08,0,0,1,.78.11C88.48,65.48,88.71,65.55,88.7,65.58Z"/><path class="cls-2" d="M67.42,71.11c-.06,0-.64-.75-1.85-1.75a12.79,12.79,0,0,0-11.42-2.63c-1.52.38-2.39.84-2.43.77s.19-.17.59-.38a9.64,9.64,0,0,1,1.76-.7,12.11,12.11,0,0,1,11.72,2.7,9.48,9.48,0,0,1,1.27,1.4C67.33,70.88,67.45,71.09,67.42,71.11Z"/><path class="cls-2" d="M67.2,67.52c-.06,0-.64-.75-1.85-1.75a12.79,12.79,0,0,0-11.42-2.63c-1.52.38-2.39.84-2.43.77s.19-.17.59-.38a9.79,9.79,0,0,1,1.75-.7,12.12,12.12,0,0,1,11.73,2.7,10.09,10.09,0,0,1,1.27,1.4C67.11,67.29,67.23,67.5,67.2,67.52Z"/><path class="cls-2" d="M67,63.93c-.06,0-.64-.75-1.85-1.75a12.79,12.79,0,0,0-11.42-2.63c-1.52.38-2.4.84-2.43.77s.19-.17.59-.38a9.79,9.79,0,0,1,1.75-.7,12.12,12.12,0,0,1,11.73,2.7,10.09,10.09,0,0,1,1.27,1.4C66.89,63.7,67,63.91,67,63.93Z"/><path class="cls-2" d="M66.76,60.34c-.06,0-.65-.75-1.85-1.75A12.79,12.79,0,0,0,53.49,56c-1.52.38-2.4.84-2.43.77s.19-.17.58-.38a10.28,10.28,0,0,1,1.76-.7,12.12,12.12,0,0,1,11.73,2.7,10.09,10.09,0,0,1,1.27,1.4C66.67,60.11,66.79,60.32,66.76,60.34Z"/><path class="cls-2" d="M66.54,56.75c-.06,0-.65-.75-1.85-1.75a12.79,12.79,0,0,0-11.42-2.63c-1.52.38-2.4.84-2.43.77s.19-.17.58-.38a10.28,10.28,0,0,1,1.76-.7,12.09,12.09,0,0,1,11.72,2.7,9.65,9.65,0,0,1,1.28,1.4C66.44,56.52,66.57,56.73,66.54,56.75Z"/><path class="cls-2" d="M66.32,53.16c-.06.05-.65-.75-1.85-1.75a12.79,12.79,0,0,0-11.42-2.63c-1.52.38-2.4.84-2.43.77s.19-.17.58-.38a10.28,10.28,0,0,1,1.76-.7,12.09,12.09,0,0,1,11.72,2.7A9.65,9.65,0,0,1,66,52.57,2,2,0,0,1,66.32,53.16Z"/><path class="cls-2" d="M386.56,62.53l.06,2.53s-13.78-4.6-21.47.12h0a1.76,1.76,0,0,1-1.3,1l-3.29.55a1.74,1.74,0,0,1-1.77-.87h0a19.28,19.28,0,0,0-16,1.79l-3,1.64L343.41,37,381,26.73Z"/><path class="cls-3" d="M388.43,58.84l.22,4.53s-13.82-6.89-26.45,2.28l1.72-22S387.07,54.32,388.43,58.84Z"/><path class="cls-1" d="M388.43,25.93s-16.79-11-27.48,7l1.25,32.76s13.38-15.83,27.78-6Z"/><path class="cls-3" d="M362.2,65.65S347.86,58,338.68,68l.58-30L361,34Z"/><path class="cls-1" d="M361,32.91a20.16,20.16,0,0,0-17.48-7.25L336,26.73,334.49,57s19.09-3.87,27.73,8.71Z"/><path class="cls-2" d="M362.2,65.65a5.72,5.72,0,0,0,0-1.29c0-.94,0-2.11-.07-3.5-.1-3.07-.23-7.1-.38-11.55s-.27-8.47-.38-11.54c0-1.39-.08-2.56-.11-3.5a6.66,6.66,0,0,0-.1-1.28,5.33,5.33,0,0,0-.11,1.28c0,.83,0,2,0,3.51,0,3,.06,7,.22,11.55s.35,8.59.53,11.54c.09,1.48.17,2.67.25,3.5A6,6,0,0,0,362.2,65.65Z"/><path class="cls-2" d="M342.94,30.54c0,.1,1-.17,2.64-.26a16.71,16.71,0,0,1,6.26.84,17,17,0,0,1,5.5,3.1c1.24,1.06,1.87,1.87,2,1.81s-.11-.24-.38-.62a11.42,11.42,0,0,0-1.32-1.47,15.28,15.28,0,0,0-12-4,10.18,10.18,0,0,0-1.93.38A2.22,2.22,0,0,0,342.94,30.54Z"/><path class="cls-2" d="M342.36,34c0,.1,1-.17,2.65-.26a16.66,16.66,0,0,1,6.25.84,17,17,0,0,1,5.5,3.1c1.24,1.06,1.87,1.87,1.95,1.81s-.11-.24-.38-.62A10.7,10.7,0,0,0,357,37.4a15.11,15.11,0,0,0-5.58-3.33,15.3,15.3,0,0,0-6.45-.71,10.32,10.32,0,0,0-1.94.38A2.22,2.22,0,0,0,342.36,34Z"/><path class="cls-2" d="M342.44,37.73c0,.09,1-.17,2.65-.27a17.08,17.08,0,0,1,6.25.84,16.8,16.8,0,0,1,5.5,3.11c1.24,1.05,1.87,1.86,2,1.8s-.11-.24-.38-.61a10,10,0,0,0-1.31-1.48,15.41,15.41,0,0,0-12-4,11.2,11.2,0,0,0-1.94.38C342.67,37.6,342.43,37.69,342.44,37.73Z"/><path class="cls-2" d="M342,41.22c0,.1,1-.17,2.64-.26a16.71,16.71,0,0,1,6.26.84,17,17,0,0,1,5.5,3.1c1.24,1.06,1.87,1.87,2,1.81s-.11-.24-.38-.62a11.42,11.42,0,0,0-1.32-1.47,15.28,15.28,0,0,0-12-4,10.18,10.18,0,0,0-1.93.38A2.22,2.22,0,0,0,342,41.22Z"/><path class="cls-2" d="M341.47,44.91c0,.1,1-.17,2.64-.26a16.71,16.71,0,0,1,6.26.84,17.2,17.2,0,0,1,5.5,3.1c1.24,1.06,1.87,1.87,1.94,1.81s-.1-.24-.38-.62a10.51,10.51,0,0,0-1.31-1.47,15.28,15.28,0,0,0-12-4,10.49,10.49,0,0,0-1.94.38A2.22,2.22,0,0,0,341.47,44.91Z"/><path class="cls-2" d="M340.72,49.06c0,.09,1.1-.2,2.88-.27a20.15,20.15,0,0,1,3.11.11,25.84,25.84,0,0,1,3.73.77A24,24,0,0,1,354,51.08a17.72,17.72,0,0,1,2.63,1.66c1.4,1.08,2.08,2,2.16,1.9s-.12-.25-.43-.66a5.52,5.52,0,0,0-.6-.7,10.64,10.64,0,0,0-.89-.84,16.09,16.09,0,0,0-2.64-1.8,21.05,21.05,0,0,0-3.61-1.48,22.26,22.26,0,0,0-3.83-.75,17.81,17.81,0,0,0-3.19,0,9.28,9.28,0,0,0-1.21.17,5.09,5.09,0,0,0-.9.2C341,48.92,340.71,49,340.72,49.06Z"/><path class="cls-2" d="M340.81,52.32c0,.1,1.11-.2,2.89-.24a18.92,18.92,0,0,1,3.12.2,23.9,23.9,0,0,1,3.71.89A24.35,24.35,0,0,1,354,54.7a18.89,18.89,0,0,1,2.6,1.72c1.4,1.11,2.08,2,2.16,1.94s-.12-.26-.43-.67a5.52,5.52,0,0,0-.6-.7,8.21,8.21,0,0,0-.89-.86,16.88,16.88,0,0,0-2.6-1.86,21.55,21.55,0,0,0-3.58-1.6,20.85,20.85,0,0,0-3.82-.88,16.89,16.89,0,0,0-3.2-.09,9.92,9.92,0,0,0-1.22.15,6.18,6.18,0,0,0-.9.2A2.5,2.5,0,0,0,340.81,52.32Z"/><path class="cls-2" d="M366.17,56.89c.08.06.69-.93,2-2.21a15,15,0,0,1,13.11-4.09c1.81.31,2.87.77,2.91.68a2.21,2.21,0,0,0-.72-.38,12.2,12.2,0,0,0-2.12-.67,14.24,14.24,0,0,0-13.45,4.2,11.94,11.94,0,0,0-1.37,1.75A2.13,2.13,0,0,0,366.17,56.89Z"/><path class="cls-2" d="M366.11,52.68c.08,0,.69-.93,2-2.21a15,15,0,0,1,13.12-4.09c1.81.31,2.87.77,2.91.68a2.33,2.33,0,0,0-.72-.39A11.5,11.5,0,0,0,381.3,46a14.23,14.23,0,0,0-13.46,4.19A13.08,13.08,0,0,0,366.48,52C366.2,52.4,366.08,52.66,366.11,52.68Z"/><path class="cls-2" d="M366.05,48.46c.07.06.69-.93,2-2.21a15,15,0,0,1,13.12-4.09c1.81.31,2.87.77,2.9.68s-.23-.18-.71-.38a12.2,12.2,0,0,0-2.12-.67A14.25,14.25,0,0,0,367.78,46a11.11,11.11,0,0,0-1.36,1.75A2.13,2.13,0,0,0,366.05,48.46Z"/><path class="cls-2" d="M366,44.25c.08,0,.7-.93,2-2.21A15,15,0,0,1,381.11,38c1.81.31,2.87.77,2.9.68s-.23-.18-.71-.39a11.5,11.5,0,0,0-2.12-.66,14.21,14.21,0,0,0-13.46,4.19,11.59,11.59,0,0,0-1.36,1.75A2.61,2.61,0,0,0,366,44.25Z"/><path class="cls-2" d="M365.92,40c.08.06.69-.92,2-2.21A15.51,15.51,0,0,1,374,34.19a15.29,15.29,0,0,1,7.05-.45c1.81.3,2.88.76,2.91.67a2.21,2.21,0,0,0-.72-.38,12.34,12.34,0,0,0-2.11-.67,14.25,14.25,0,0,0-13.46,4.2,11.94,11.94,0,0,0-1.37,1.75A2.41,2.41,0,0,0,365.92,40Z"/><path class="cls-2" d="M365.86,35.82c.08,0,.69-.93,2-2.21A15,15,0,0,1,381,29.52c1.81.31,2.88.77,2.91.68a2.33,2.33,0,0,0-.72-.39,11.5,11.5,0,0,0-2.12-.66,14.21,14.21,0,0,0-13.45,4.19,12.5,12.5,0,0,0-1.37,1.75C366,35.54,365.83,35.8,365.86,35.82Z"/></g><g id="Floor"><path class="cls-4" d="M417.34,422.42c0,.15-93.17.26-208.07.26s-208.1-.11-208.1-.26,93.15-.26,208.1-.26S417.34,422.28,417.34,422.42Z"/></g><g id="Big_Books" data-name="Big Books"><rect class="cls-1" x="295.17" y="239.56" width="43.84" height="52.12"/><rect class="cls-5" x="98.55" y="236.16" width="198.13" height="58.8"/><path class="cls-5" d="M340.34,241.1h-49v-4.94h49a2.47,2.47,0,0,1,2.47,2.47h0A2.46,2.46,0,0,1,340.34,241.1Z"/><path class="cls-5" d="M340.34,295h-49V290h49a2.47,2.47,0,0,1,2.47,2.47h0A2.47,2.47,0,0,1,340.34,295Z"/><g class="cls-6"><rect x="257.7" y="236.16" width="23.41" height="58.8"/></g><g class="cls-6"><rect x="116.13" y="236.16" width="23.41" height="58.8"/></g><path class="cls-2" d="M339,248.18c0,.14-9.49.26-21.19.26s-21.19-.12-21.19-.26,9.49-.26,21.19-.26S339,248,339,248.18Z"/><path class="cls-2" d="M339,256c0,.15-9.49.26-21.19.26s-21.19-.11-21.19-.26,9.49-.26,21.19-.26S339,255.85,339,256Z"/><path class="cls-2" d="M339,265.62c0,.14-9.49.26-21.19.26s-21.19-.12-21.19-.26,9.49-.26,21.19-.26S339,265.47,339,265.62Z"/><path class="cls-2" d="M339,275.24c0,.15-9.49.26-21.19.26s-21.19-.11-21.19-.26,9.49-.26,21.19-.26S339,275.1,339,275.24Z"/><path class="cls-2" d="M339,284.86c0,.15-9.49.27-21.19.27s-21.19-.12-21.19-.27,9.49-.26,21.19-.26S339,284.72,339,284.86Z"/><g class="cls-7"><rect x="155.98" y="260.32" width="89.14" height="10.59"/></g><rect class="cls-8" x="294.05" y="296.11" width="44.51" height="31.76"/><rect class="cls-9" x="105.11" y="294.96" width="189.44" height="34.06"/><path class="cls-9" d="M293.17,297.26H341a1.15,1.15,0,0,0,1.15-1.15h0A1.14,1.14,0,0,0,341,295H293.17Z"/><path class="cls-9" d="M293.17,326.71H341a1.15,1.15,0,0,1,1.15,1.15v0A1.15,1.15,0,0,1,341,329H293.17a0,0,0,0,1,0,0v-2.3A0,0,0,0,1,293.17,326.71Z"/><path class="cls-2" d="M338.57,302.14c0,.14-9.86.26-22,.26s-22-.12-22-.26,9.85-.26,22-.26S338.57,302,338.57,302.14Z"/><path class="cls-2" d="M338.57,308.15c0,.14-9.86.26-22,.26s-22-.12-22-.26,9.85-.26,22-.26S338.57,308,338.57,308.15Z"/><path class="cls-2" d="M338.57,314.16c0,.14-9.86.26-22,.26s-22-.12-22-.26,9.85-.26,22-.26S338.57,314,338.57,314.16Z"/><path class="cls-2" d="M338.57,320.17c0,.14-9.86.26-22,.26s-22-.12-22-.26,9.85-.26,22-.26S338.57,320,338.57,320.17Z"/><rect class="cls-4" x="134.64" y="307.15" width="130.64" height="8.89"/><rect class="cls-3" x="299.88" y="332.04" width="45.44" height="86.09"/><rect class="cls-5" x="86.61" y="329.02" width="213.27" height="93.34"/><path class="cls-5" d="M348.88,422.36H294.05v-6.05h54.83a3,3,0,0,1,3,3h0A3,3,0,0,1,348.88,422.36Z"/><path class="cls-5" d="M294.05,329h54.82a3,3,0,0,1,3,3v0a3,3,0,0,1-3,3H294.05a0,0,0,0,1,0,0V329A0,0,0,0,1,294.05,329Z"/><g class="cls-6"><polygon class="cls-10" points="254.01 329.02 209.15 422.36 247.05 422.36 289.58 329.02 254.01 329.02"/></g><g class="cls-6"><polygon class="cls-10" points="183.25 329.02 138.39 422.36 176.29 422.36 218.82 329.02 183.25 329.02"/></g><path class="cls-2" d="M345.32,343.59c0,.14-10.17.26-22.72.26s-22.72-.12-22.72-.26,10.17-.26,22.72-.26S345.32,343.44,345.32,343.59Z"/><path class="cls-2" d="M345.32,354.63c0,.14-10.17.26-22.72.26s-22.72-.12-22.72-.26,10.17-.26,22.72-.26S345.32,354.48,345.32,354.63Z"/><path class="cls-2" d="M345.32,365.67c0,.14-10.17.26-22.72.26s-22.72-.12-22.72-.26,10.17-.26,22.72-.26S345.32,365.52,345.32,365.67Z"/><path class="cls-2" d="M345.32,376.71c0,.14-10.17.26-22.72.26s-22.72-.12-22.72-.26,10.17-.26,22.72-.26S345.32,376.57,345.32,376.71Z"/><path class="cls-2" d="M345.32,387.75c0,.15-10.17.26-22.72.26s-22.72-.11-22.72-.26,10.17-.26,22.72-.26S345.32,387.61,345.32,387.75Z"/><path class="cls-2" d="M345.32,398.79c0,.15-10.17.26-22.72.26s-22.72-.11-22.72-.26,10.17-.26,22.72-.26S345.32,398.65,345.32,398.79Z"/><path class="cls-2" d="M345.32,409.83c0,.15-10.17.27-22.72.27s-22.72-.12-22.72-.27,10.17-.26,22.72-.26S345.32,409.69,345.32,409.83Z"/></g><g id="Character"><path class="cls-5" d="M318.28,78.23,304.36,55.89a.79.79,0,0,0-1.34,0L289.36,79.53Z"/><g class="cls-11"><path d="M318.28,78.23,304.36,55.89a.79.79,0,0,0-1.34,0L289.36,79.53Z"/></g><polygon class="cls-3" points="304.36 56.95 317.37 78.14 314.06 77.62 292.82 74.28 300.73 57.61 304.36 56.95"/><path class="cls-5" d="M305.75,98.62l12.53-20.39-32.45-6a2.56,2.56,0,0,0-2.67,1.22l-18.3,31a1.6,1.6,0,0,0,1.09,2.38l30.5,5.41Z"/><polygon class="cls-3" points="297.09 58.23 315.1 77.73 288.95 72.83 297.09 58.23"/><path class="cls-4" d="M289,72.83a1.1,1.1,0,0,1,.12-.28l.4-.8c.4-.74.94-1.74,1.6-3l5.83-10.63.15-.28.21.23L309,70.75l6.28,6.81-.39.32L304.67,63.4l-2.94-4.23L301,58c-.17-.26-.26-.4-.24-.41A3,3,0,0,1,301,58l.83,1.1,3.05,4.14L315.3,77.58l-.39.32-6.29-6.8L296.93,58.39l.36,0c-2.46,4.33-4.51,8-6,10.54l-1.71,2.94-.46.76C289,72.75,289,72.84,289,72.83Z"/><g class="cls-11"><path class="cls-10" d="M289.31,81.31c-.28.42-10.92,18.16-10.92,18.16l17.34,3.23,11.51-18.39Z"/></g><path class="cls-9" d="M158.83,383.76l9.53-12.44.5-.65,16.24,12.08-15,16.52.55,16.72c8.37,2.17,9.63,6.35,9.63,6.35H162.83L147,391.86Z"/><path class="cls-3" d="M147,391.86l15.81,30.47h17.41a7.08,7.08,0,0,0-2-2.61l-14.16-.8-14.59-28.79Z"/><path class="cls-4" d="M170.5,408.33c-.13.18-1.13-.39-2.48-.35s-2.33.59-2.47.42.82-1.18,2.46-1.19S170.66,408.2,170.5,408.33Z"/><path class="cls-4" d="M170.22,404.18c-.17.13-.95-.9-2.33-1.17s-2.5.36-2.62.18.15-.37.63-.64a3.29,3.29,0,0,1,4,.8C170.24,403.79,170.31,404.13,170.22,404.18Z"/><path class="cls-4" d="M170.34,398.86c-.19.09-.78-.91-2-1.33s-2.3,0-2.39-.22.18-.33.66-.51a3,3,0,0,1,2,0,3,3,0,0,1,1.55,1.25C170.41,398.49,170.43,398.82,170.34,398.86Z"/><path class="cls-4" d="M175,394.73c-.2.07-.69-.92-1.77-1.62s-2.17-.8-2.18-1,1.29-.5,2.6.39S175.21,394.71,175,394.73Z"/><path class="cls-4" d="M177.28,391.16a7.52,7.52,0,0,1-1.52-1.83c-.49-.68-1-1.38-1.47-2.09a5.13,5.13,0,0,1-.81-1.41,1.42,1.42,0,0,1,.11-1.06,1.05,1.05,0,0,1,1-.54,3.21,3.21,0,0,1,1.62.84,5.69,5.69,0,0,1,1.06,1.21,5.92,5.92,0,0,1,.91,2.51,3.26,3.26,0,0,1-.39,2.38,20.84,20.84,0,0,0-.14-2.29,6.06,6.06,0,0,0-1-2.2,6.24,6.24,0,0,0-1-1,2.75,2.75,0,0,0-1.2-.65.31.31,0,0,0-.33.16.73.73,0,0,0-.05.49,5.78,5.78,0,0,0,.68,1.21l1.33,2.19A7.69,7.69,0,0,1,177.28,391.16Z"/><path class="cls-4" d="M177.9,391.67c-.08,0,0-.92.93-2a4.34,4.34,0,0,1,5.16-.93.81.81,0,0,1,.27.62,1,1,0,0,1-.21.55,2.74,2.74,0,0,1-.63.55,7.77,7.77,0,0,1-3.52,1.34,3.52,3.52,0,0,1-2.15-.2c0-.12.83-.06,2.06-.33a8.74,8.74,0,0,0,2.08-.74,8.2,8.2,0,0,0,1.1-.68,2.68,2.68,0,0,0,.45-.39c.08-.15.06-.11,0-.16a1.43,1.43,0,0,0-.5-.18,3.65,3.65,0,0,0-.65-.1,4.15,4.15,0,0,0-3.12,1C178.27,390.92,178,391.72,177.9,391.67Z"/><path class="cls-3" d="M160.91,391.34a2.07,2.07,0,1,1-2.07-2.06A2.07,2.07,0,0,1,160.91,391.34Z"/><g class="cls-11"><polygon points="183.58 384.41 180.24 388.08 166.18 374.16 168.14 371.61 183.58 384.41"/></g><path class="cls-9" d="M227,390.09l-1.78,21.17s20.92,7.14,21,11.08L205,422.15l1.42-33.1Z"/><path class="cls-3" d="M212.55,408.87a1.67,1.67,0,0,0-1.25,1.86,1.61,1.61,0,0,0,1.83,1.26,1.77,1.77,0,0,0,1.32-2,1.69,1.69,0,0,0-2.06-1.1"/><path class="cls-3" d="M205,422.15l.14-3.3,39,.94s2.07,1.65,2,2.55Z"/><path class="cls-4" d="M225.87,411.09c0,.2-1,.24-2,.84s-1.59,1.42-1.77,1.33.17-1.24,1.42-1.94S225.93,410.9,225.87,411.09Z"/><path class="cls-4" d="M230.11,413.08c0,.2-.85.5-1.58,1.31s-1,1.71-1.16,1.69-.28-1.16.64-2.16S230.11,412.89,230.11,413.08Z"/><path class="cls-4" d="M232.31,418.36c-.18,0-.42-1,.15-2.06s1.53-1.46,1.61-1.29-.53.73-1,1.62S232.51,418.35,232.31,418.36Z"/><path class="cls-4" d="M225.74,406.22c-.09.17-1-.15-2.14-.12s-2,.33-2.14.16.79-.86,2.13-.86S225.85,406.06,225.74,406.22Z"/><path class="cls-4" d="M226,401.94a3.89,3.89,0,0,1-2.06-.11,9,9,0,0,1-2.12-.77,10.9,10.9,0,0,1-1.16-.68,2.7,2.7,0,0,1-.6-.52.88.88,0,0,1,0-1.07,1.1,1.1,0,0,1,.91-.42,3.12,3.12,0,0,1,.76.14A7.2,7.2,0,0,1,223,399a7.3,7.3,0,0,1,1.85,1.34c.91.93,1.2,1.69,1.13,1.73s-.53-.59-1.47-1.37a8.24,8.24,0,0,0-1.79-1.12,6.92,6.92,0,0,0-1.16-.42c-.43-.14-.8-.16-.93,0s0,.1,0,.23a2.19,2.19,0,0,0,.44.38,10.34,10.34,0,0,0,1.06.67,11,11,0,0,0,2,.86A14.16,14.16,0,0,1,226,401.94Z"/><path class="cls-4" d="M225.75,402.21a3.27,3.27,0,0,1-.45-2,6.79,6.79,0,0,1,.39-2.25,7.12,7.12,0,0,1,.58-1.22,1.72,1.72,0,0,1,1.37-1,1,1,0,0,1,.83.61,2.74,2.74,0,0,1,.18.77,4.56,4.56,0,0,1-.07,1.39,4.73,4.73,0,0,1-1,2.09c-.86,1-1.71,1.22-1.72,1.16s.66-.46,1.32-1.46a4.76,4.76,0,0,0,.75-1.9,4.37,4.37,0,0,0,0-1.2c-.05-.44-.19-.8-.36-.76s-.57.3-.75.64a7.12,7.12,0,0,0-.57,1.09,7.65,7.65,0,0,0-.5,2C225.68,401.43,225.86,402.19,225.75,402.21Z"/><path class="cls-12" d="M310.48,105.28a5.19,5.19,0,0,0-.15-3.64c-1.7-4-5.7-13-7.14-12.75s-2.23,2.68-.77,5.36l-4.71-4a1.36,1.36,0,0,0-2.23,1.24,7.32,7.32,0,0,0,.58,1.76c1.46,3.1,5.52,6,5.52,6l-8.2,0s-1.53,2.14,1.28,3.58a6,6,0,0,0,2,.57l4.24.43s-7.66,8.46-7.92,9.25a17.39,17.39,0,0,0-.68,3.9l-14.7,16.36,3.93,24.85,26.56-45.95Z"/><path class="cls-13" d="M308.34,101.54c-.07,0-.34-.35-.92-.78a6.17,6.17,0,0,0-2.59-1.09,16.28,16.28,0,0,0-2.89-.16,3.39,3.39,0,0,1-1.24-.07c0-.07.45-.19,1.21-.29a9.73,9.73,0,0,1,3,0,5.33,5.33,0,0,1,2.74,1.32C308.23,101,308.39,101.51,308.34,101.54Z"/><path class="cls-13" d="M308.47,99a16.45,16.45,0,0,1-3.33-2.3,15.94,15.94,0,0,1-3-2.7,15.58,15.58,0,0,1,3.34,2.29A15.52,15.52,0,0,1,308.47,99Z"/><path class="cls-4" d="M236,221.56c.22,0,1,49,1.32,71.07a38.36,38.36,0,0,1-5.18,19.81l-47.85,84.07-27.48-22.88,44.44-75.11-16.36-79.18,32.4-27.87Z"/><path class="cls-4" d="M259.22,211.55c-.14,2.82-26,184.54-26,184.54l-32-2.28L213,210.42Z"/><path class="cls-9" d="M232.42,224.31s0,.16.07.47.07.81.13,1.41c.1,1.25.26,3.07.45,5.39.37,4.71.91,11.49,1.56,19.85s1.36,18.37,2.18,29.45q.27,4.15.56,8.51c.08,1.45.21,2.93.16,4.43a31.3,31.3,0,0,1-.44,4.5,33.86,33.86,0,0,1-2.78,8.84c-.65,1.43-1.45,2.8-2.22,4.18l-2.33,4.17-32.08,57.33-9.77,17.34c-1.16,2-2.06,3.61-2.68,4.71-.31.51-.54.92-.71,1.21l-.26.41s.06-.15.21-.43l.66-1.25c.61-1.1,1.48-2.7,2.6-4.75l9.63-17.42c8.18-14.71,19.47-35,31.95-57.4.78-1.4,1.55-2.79,2.33-4.17s1.56-2.74,2.2-4.15a33.71,33.71,0,0,0,2.75-8.7,30.33,30.33,0,0,0,.43-4.44c.06-1.46-.07-2.93-.14-4.38q-.28-4.35-.55-8.51c-.78-11.08-1.47-21.06-2.06-29.46s-1.07-15.14-1.4-19.86c-.15-2.32-.27-4.14-.36-5.4,0-.6-.06-1.06-.08-1.4S232.42,224.31,232.42,224.31Z"/><path class="cls-9" d="M210.55,310.24a1.59,1.59,0,0,1-.65-.11,8.83,8.83,0,0,1-1.68-.62,12.64,12.64,0,0,1-6.85-9.16,8.87,8.87,0,0,1-.12-1.78c0-.42,0-.65.08-.65s.09.92.4,2.36a13.7,13.7,0,0,0,6.66,8.9C209.68,309.89,210.57,310.15,210.55,310.24Z"/><path class="cls-9" d="M214.17,304.78a6.59,6.59,0,0,1-2.33,0,14.4,14.4,0,0,1-9.51-5.57,6.67,6.67,0,0,1-1.15-2,22.61,22.61,0,0,1,1.44,1.79,16.32,16.32,0,0,0,4.17,3.51,16.59,16.59,0,0,0,5.11,1.93C213.28,304.67,214.17,304.69,214.17,304.78Z"/><path class="cls-9" d="M191.61,226.93a3.46,3.46,0,0,0,.77.53,2.86,2.86,0,0,0,2.44-.17A22.05,22.05,0,0,0,198,225c1.15-.91,2.38-2,3.61-3.13a61.7,61.7,0,0,0,5.87-6.4c1.38-1.75,2.17-2.89,2.23-2.84a3.52,3.52,0,0,1-.45.86c-.33.53-.83,1.29-1.49,2.2a48.16,48.16,0,0,1-5.8,6.56c-1.25,1.17-2.5,2.23-3.67,3.13a19.78,19.78,0,0,1-3.3,2.21,3,3,0,0,1-2.68,0C191.72,227.31,191.59,226.93,191.61,226.93Z"/><path class="cls-9" d="M209.43,225.45a13.65,13.65,0,0,1-1.27,2.82,19.49,19.49,0,0,1-4.6,5.89,11.26,11.26,0,0,1-7,2.66,7.35,7.35,0,0,1-2.26-.32,2.13,2.13,0,0,1-.77-.34,14.74,14.74,0,0,0,3,.29,11.57,11.57,0,0,0,6.64-2.69,21.78,21.78,0,0,0,4.61-5.67A27.53,27.53,0,0,1,209.43,225.45Z"/><path class="cls-5" d="M259.22,211.55s-24.7,11.54-33.56,7.57S211,206,204.59,208.12s-16.19,4-19.55,13.13a7.93,7.93,0,0,1-2.13-5.74c0-3.57,3-8.4,3-8.4l-4-41.26.17-69.37s6.88-10.25,25.51-9.64l25.73,3.7s13.13,4,16.79,10.69,2.14,54.48,2.14,54.48,8.14,46.35,8.14,50a13.93,13.93,0,0,1-1.15,5.87"/><path class="cls-5" d="M273.84,132.69l-10.61,9.46-13.14-40.92-11,24.64,4.44,40a15.34,15.34,0,0,0,11.62,13.21h0a15.36,15.36,0,0,0,13.79-3.43l11.2-9.57a6,6,0,0,0,2.05-5.56L278,134.18A2.52,2.52,0,0,0,273.84,132.69Z"/><path class="cls-12" d="M193.51,121.61c0,.92-4.93,45.59-4.93,45.59l20.89,45.2c-2.05,4.25-5.92,8.13-10.23,11.91,0,0-5.34-4.89-5.65-15.27,0,0-23.74-27.89-26.18-35.22s4.28-57.39,4.28-57.39Z"/><path class="cls-4" d="M246.58,129.4a3.49,3.49,0,0,1-.43.9c-.31.57-.77,1.38-1.35,2.38a39.26,39.26,0,0,1-2.13,3.46,6.49,6.49,0,0,1-1.8,1.69,5.34,5.34,0,0,1-2.56.75,7.72,7.72,0,0,1-4.79-1.52,12.54,12.54,0,0,1-2.83-3,25.66,25.66,0,0,1-1.45-2.32,4,4,0,0,1-.44-.91c.08-.05.81,1.19,2.19,3a13.43,13.43,0,0,0,2.8,2.79,7.5,7.5,0,0,0,4.5,1.39,4.86,4.86,0,0,0,2.31-.67,6.09,6.09,0,0,0,1.69-1.54c.89-1.19,1.57-2.41,2.2-3.36s1.13-1.76,1.49-2.29A3.56,3.56,0,0,1,246.58,129.4Z"/><path class="cls-4" d="M262,166.46a4.07,4.07,0,0,1-.4-.91,21.14,21.14,0,0,1-.79-2.59,30.69,30.69,0,0,1,.89-17.63,22.84,22.84,0,0,1,1.05-2.5c.29-.57.46-.88.5-.86s-.52,1.32-1.2,3.47a34.41,34.41,0,0,0-.89,17.44C261.6,165.09,262.06,166.43,262,166.46Z"/><path class="cls-4" d="M267.56,158.26a9.6,9.6,0,0,1-1.29-2.14,30.35,30.35,0,0,1-3.11-11.64,8.89,8.89,0,0,1,.06-2.51,18.15,18.15,0,0,1,.31,2.47,41,41,0,0,0,1.1,5.88,42.58,42.58,0,0,0,2,5.64A16.39,16.39,0,0,1,267.56,158.26Z"/><path class="cls-4" d="M245.89,137.77a1.73,1.73,0,0,1,.23.45,11.18,11.18,0,0,1,.5,1.33,14.61,14.61,0,0,1,.66,5.2,11.67,11.67,0,0,1-2.93,7.16,10.15,10.15,0,0,1-3.8,2.66,8.81,8.81,0,0,1-5,.42,8.18,8.18,0,0,1-4.39-2.38,9.27,9.27,0,0,1-2.11-4.13,25.72,25.72,0,0,1-.6-4.13c-.1-1.28-.2-2.49-.29-3.59-.15-2.14-.27-3.9-.37-5.21,0-.56,0-1-.07-1.42a1.68,1.68,0,0,1,0-.49,2.05,2.05,0,0,1,.09.48c.05.39.11.85.17,1.41.14,1.31.32,3.06.54,5.19.11,1.11.22,2.31.35,3.59a26.45,26.45,0,0,0,.63,4.05,8.81,8.81,0,0,0,2,3.9,7.74,7.74,0,0,0,4.12,2.22,8.41,8.41,0,0,0,4.68-.38,9.75,9.75,0,0,0,3.63-2.52,11.38,11.38,0,0,0,2.92-6.85,15.25,15.25,0,0,0-.48-5.12C246.11,138.42,245.85,137.79,245.89,137.77Z"/><g class="cls-7"><path d="M195.28,181.69a37.93,37.93,0,0,1,2.38-9.5c1.44-3.79,3.32-7.56,3.38-11.61a26.55,26.55,0,0,0-1.34-7.52l-7.29-26.26q-.42,10.19-.83,20.37a8.62,8.62,0,0,0,.76,4.84c1.08,1.76,3.29,2.53,4.52,4.19a4.9,4.9,0,0,1,.67,4.5c-.54,1.49-1.87,1.87-3.41,2.24a19.42,19.42,0,0,1-2.12.43c-1.05.17-2.56-.06-3,.88-1.21,2.36.08,3.79.59,4.92,2.32,5.15,5.73,12.52,5.73,12.52"/></g><path class="cls-5" d="M186.36,92.94s-21.53,10.89-24.53,69a6.18,6.18,0,0,0,7.31,6.4c8.83-1.68,22.21-4.27,22.12-4.63-.12-.54,5-51.12,5-51.12Z"/><path class="cls-4" d="M195.9,111.65s0,.27,0,.78,0,1.26,0,2.22c0,1.94-.15,4.73-.39,8.18s-.58,7.55-1,12.09c-.26,2.27-.53,4.66-.8,7.13-.15,1.23-.3,2.49-.46,3.76s-.54,2.57-.74,3.84a5,5,0,0,0,0,1.85,3.49,3.49,0,0,0,.86,1.56c.82.9,2,1.38,3,2.29a6,6,0,0,1,1.64,3.37,6.31,6.31,0,0,1,.05,1.84,2.91,2.91,0,0,1-.76,1.7,2.86,2.86,0,0,1-1.66.68l-1.62.31-3.08.62L185.35,165l-8,1.66-1.26.25-.5.1h-.08s-.05-.24,0-.13h0l.11,0,.19,0a4.85,4.85,0,0,1,.77-.12,4.05,4.05,0,0,1-.74.22l-.2.05-.11,0h0c0,.11,0-.15,0-.13h0l.06,0,.5-.12,1.25-.3,8-1.82,5.52-1.21,3.08-.64,1.62-.32a2.42,2.42,0,0,0,1.42-.56,3.71,3.71,0,0,0,.55-3.11,5.5,5.5,0,0,0-1.5-3.09c-.85-.83-2.08-1.3-3-2.31a4,4,0,0,1-1-1.79,5.44,5.44,0,0,1,0-2.05c.21-1.34.63-2.56.74-3.83s.31-2.52.46-3.75c.29-2.47.56-4.85.83-7.12.5-4.53.89-8.63,1.16-12.07s.45-6.23.56-8.15l.12-2.22A3.73,3.73,0,0,1,195.9,111.65Z"/><path class="cls-4" d="M187,147.26a1.88,1.88,0,0,1-.13.69,4.17,4.17,0,0,1-.26.78,7.79,7.79,0,0,1-.46,1,11.14,11.14,0,0,1-1.64,2.33,13.14,13.14,0,0,1-2.69,2.23,13.57,13.57,0,0,1-3.2,1.39,11.55,11.55,0,0,1-2.82.41,9.15,9.15,0,0,1-1.1-.05,4.1,4.1,0,0,1-.81-.12c-.44-.09-.68-.16-.67-.2s1,.1,2.56,0a13.23,13.23,0,0,0,2.7-.5,14.21,14.21,0,0,0,3.07-1.38,14.05,14.05,0,0,0,2.61-2.11,12.22,12.22,0,0,0,1.67-2.18C186.68,148.19,186.94,147.23,187,147.26Z"/><g class="cls-7"><path d="M210.24,199.08c10,5.93,22.26,7.35,33.77,5.6a16.08,16.08,0,0,0,5.49-1.59,6.55,6.55,0,0,0,3.44-4.36,4.17,4.17,0,0,0-2.46-4.67c-1.83-.62-3.77.38-5.5,1.25a50,50,0,0,1-35.3,3.56"/></g><path class="cls-4" d="M256.87,200a2.61,2.61,0,0,1-.43.34c-.3.19-.72.52-1.32.86a28.21,28.21,0,0,1-5.24,2.46A41.06,41.06,0,0,1,231,205.32a84.06,84.06,0,0,1-18.39-4.94c-2.28-.85-4.11-1.59-5.37-2.11l-1.45-.61a3.21,3.21,0,0,1-.49-.24,1.87,1.87,0,0,1,.53.14l1.48.52,5.43,2a92.16,92.16,0,0,0,18.33,4.77,42.37,42.37,0,0,0,18.7-1.51A30.34,30.34,0,0,0,255,201C256.21,200.36,256.84,200,256.87,200Z"/><g class="cls-7"><path d="M256.3,179.26c3-3,3-8.41,2.4-12.63s-2.23-8.25-2.8-12.47c-.54-4-.15-8.1-.33-12.14s-1-8.27-3.68-11.35a132.41,132.41,0,0,0,4.41,48.59"/></g><g class="cls-7"><path d="M227.9,135.31c-.46,2.67,0,5.45-.23,8.17a35.52,35.52,0,0,0,0,8.18,12,12,0,0,0,3.57,7.19,7.37,7.37,0,0,0,7.6,1.54,6.85,6.85,0,0,0,3.84-6.74,11.19,11.19,0,0,1-5.82,1.11,8.25,8.25,0,0,1-5.27-2.55,13.1,13.1,0,0,1-2.93-8.1c-.19-2.92-.55-5.92-.79-8.8"/></g><path class="cls-8" d="M194.49,127.82a5.21,5.21,0,0,1-1.08.23c-.7.12-1.71.27-3,.41a37.36,37.36,0,0,1-9.92,0,18.7,18.7,0,0,1-9.09-3.9,12.78,12.78,0,0,1-2.08-2.2,4.46,4.46,0,0,1-.57-.95,23.84,23.84,0,0,0,2.88,2.86A19.49,19.49,0,0,0,180.6,128a42.82,42.82,0,0,0,9.8.13l3-.25A4.39,4.39,0,0,1,194.49,127.82Z"/><path class="cls-8" d="M193.08,135.49a4.31,4.31,0,0,1-1.06.38,11.66,11.66,0,0,1-1.28.33c-.5.1-1.07.25-1.72.32a26.74,26.74,0,0,1-4.55.3,30.61,30.61,0,0,1-5.55-.64,32.26,32.26,0,0,1-5.32-1.7,28.61,28.61,0,0,1-4-2.15c-.56-.34-1-.7-1.44-1a10.57,10.57,0,0,1-1-.82,5.69,5.69,0,0,1-.81-.78c.07-.08,1.28,1,3.47,2.29a30.39,30.39,0,0,0,4,2,32.59,32.59,0,0,0,5.24,1.64,33.55,33.55,0,0,0,5.46.67,30.82,30.82,0,0,0,4.48-.18C191.52,135.85,193.05,135.39,193.08,135.49Z"/><path class="cls-8" d="M227.06,134.24c0,.14-7.26.07-16.2-.16s-16.2-.53-16.19-.67,7.25-.08,16.2.15S227.06,134.1,227.06,134.24Z"/><path class="cls-8" d="M228.1,142.32a7.27,7.27,0,0,1-1.33.41c-.86.25-2.12.54-3.7.85a69.93,69.93,0,0,1-24.93.26c-1.58-.28-2.85-.54-3.71-.76a7.86,7.86,0,0,1-1.34-.39,6.3,6.3,0,0,1,1.38.19c.88.16,2.15.37,3.73.6a83.6,83.6,0,0,0,12.42.82A81.41,81.41,0,0,0,223,143.21c1.57-.26,2.84-.49,3.72-.67A6.15,6.15,0,0,1,228.1,142.32Z"/><path class="cls-8" d="M246.88,140.83a2.22,2.22,0,0,1-.33.75,6.41,6.41,0,0,1-1.47,1.66,9.71,9.71,0,0,1-7,1.9,17.56,17.56,0,0,1-6.82-2.43,13.17,13.17,0,0,1-2.48-1.67,24,24,0,0,1,2.66,1.34,19.24,19.24,0,0,0,6.7,2.24,9.85,9.85,0,0,0,6.66-1.67A11,11,0,0,0,246.88,140.83Z"/><path class="cls-8" d="M251.39,134.69a7.22,7.22,0,0,1-2.58.81,7.07,7.07,0,0,1-2.68.3,7.22,7.22,0,0,1,2.58-.81A7.32,7.32,0,0,1,251.39,134.69Z"/><path class="cls-8" d="M261.06,135a17.21,17.21,0,0,1-4.65,2.3,16.83,16.83,0,0,1-5,1.23c0-.15,2.2-.75,4.86-1.72S261,134.88,261.06,135Z"/><path class="cls-8" d="M257.86,125.43a16.73,16.73,0,0,1-3.07.9,15.21,15.21,0,0,1-3.09.83,7.28,7.28,0,0,1,3-1.33A7.47,7.47,0,0,1,257.86,125.43Z"/><path class="cls-4" d="M252.42,121.77a2.05,2.05,0,0,1,0,.59l-.15,1.68c-.07.73-.15,1.62-.22,2.66s-.18,2.22-.23,3.53c-.17,2.61-.25,5.73-.27,9.19s.11,7.26.35,11.25.66,7.77,1.1,11.2.94,6.51,1.44,9.08c.23,1.29.48,2.45.69,3.46s.39,1.9.56,2.61.27,1.22.36,1.65a2.14,2.14,0,0,1,.09.59,2.67,2.67,0,0,1-.19-.56c-.12-.43-.27-1-.46-1.63s-.42-1.58-.65-2.59-.51-2.17-.76-3.46c-.55-2.57-1.06-5.65-1.56-9.09s-.87-7.23-1.14-11.23-.33-7.82-.31-11.29.16-6.59.38-9.21c.08-1.31.21-2.49.31-3.52s.21-1.93.31-2.66.18-1.23.24-1.67A3.2,3.2,0,0,1,252.42,121.77Z"/><g class="cls-7"><path d="M230.6,133.52a10.85,10.85,0,0,0,10.22.75,4,4,0,0,1,1.2-.44,1.15,1.15,0,0,1,1.13.43,1.46,1.46,0,0,1-.32,1.61,6.32,6.32,0,0,1-6.5,2,9.7,9.7,0,0,1-5.55-4.32"/></g><path class="cls-4" d="M211.82,48.1a35,35,0,0,1-1.14-7,11.86,11.86,0,0,1,1.6-6.76,7.26,7.26,0,0,1,5.78-3.53c1.45,0,2.91.46,4.34.2,1.65-.3,2.94-1.54,4.35-2.46a12.23,12.23,0,0,1,7.49-1.95,7.34,7.34,0,0,1,3.87,1.27,4.07,4.07,0,0,1,1.73,3.55,19.64,19.64,0,0,1,5.07-.31,6.51,6.51,0,0,1,4.44,2.2,4,4,0,0,1,.29,4.72A3.24,3.24,0,0,1,253.55,40a4.21,4.21,0,0,1-1,4.41,7.81,7.81,0,0,1-5.06,1.84,11.42,11.42,0,0,1-4.85-1"/><path class="cls-12" d="M217.42,101.08h0a11.83,11.83,0,0,0,14.42-10.36c.38-3.8.71-7,.78-7.51,0,0,9.57.18,11.32-9.11s3.88-31,3.88-31h0a32.89,32.89,0,0,0-33.24-1.61l-1.57.82-4.71,46A11.83,11.83,0,0,0,217.42,101.08Z"/><path class="cls-13" d="M232.66,83.08a21.93,21.93,0,0,1-11.53-5.58s1.69,7.21,11.13,8Z"/><path class="cls-12" d="M212.47,52.2c-.15-.09-6.07-3-7,3.39s5.7,6,5.74,5.82S212.47,52.2,212.47,52.2Z"/><path class="cls-13" d="M209.62,58.7s-.12.06-.32.12a1.09,1.09,0,0,1-.84-.1,2.77,2.77,0,0,1-.92-2.66,3.54,3.54,0,0,1,.54-1.55,1.28,1.28,0,0,1,1-.73.56.56,0,0,1,.61.39c.06.2,0,.32,0,.33s.15-.08.13-.36a.66.66,0,0,0-.19-.43.8.8,0,0,0-.59-.25,1.58,1.58,0,0,0-1.31.82,3.76,3.76,0,0,0-.64,1.73,2.93,2.93,0,0,0,1.23,3,1.24,1.24,0,0,0,1.05,0C209.59,58.86,209.64,58.72,209.62,58.7Z"/><path class="cls-4" d="M243.14,57.41a1.35,1.35,0,0,1-1.52,1.12,1.29,1.29,0,0,1-1.16-1.44A1.35,1.35,0,0,1,242,56,1.29,1.29,0,0,1,243.14,57.41Z"/><path class="cls-4" d="M243.76,55.93c-.2.15-1.07-.77-2.51-1s-2.6.28-2.73.08.16-.37.68-.63a3.72,3.72,0,0,1,2.22-.28,3.57,3.57,0,0,1,2,1C243.76,55.53,243.85,55.87,243.76,55.93Z"/><path class="cls-4" d="M229.26,54.94a1.35,1.35,0,0,1-1.52,1.12,1.29,1.29,0,0,1-1.16-1.44,1.35,1.35,0,0,1,1.52-1.12A1.29,1.29,0,0,1,229.26,54.94Z"/><path class="cls-4" d="M229.64,53.74c-.19.14-1.07-.78-2.5-1s-2.61.29-2.73.09.16-.38.68-.63a3.7,3.7,0,0,1,2.22-.28,3.54,3.54,0,0,1,1.95,1C229.64,53.33,229.74,53.67,229.64,53.74Z"/><path class="cls-4" d="M233,65.26a9.75,9.75,0,0,1,2.4,0c.37,0,.73,0,.83-.23a1.82,1.82,0,0,0-.05-1.12c-.19-.95-.39-1.94-.59-3-.81-4.23-1.33-7.68-1.16-7.71s1,3.37,1.77,7.6c.19,1,.38,2,.55,3a2.17,2.17,0,0,1-.06,1.46.92.92,0,0,1-.7.43,2.55,2.55,0,0,1-.63,0A9.76,9.76,0,0,1,233,65.26Z"/><path class="cls-4" d="M228.59,65.51c.24,0,0,1.58,1.11,2.92s2.82,1.45,2.79,1.67-.42.24-1.12.14A4,4,0,0,1,229,68.93a3.48,3.48,0,0,1-.83-2.43C228.25,65.84,228.49,65.49,228.59,65.51Z"/><path class="cls-4" d="M243.67,53.32c-.3.28-1.23-.23-2.41-.45s-2.23-.16-2.4-.54c-.08-.19.14-.49.63-.72a3.39,3.39,0,0,1,2.06-.18,3.31,3.31,0,0,1,1.82,1C243.73,52.83,243.81,53.18,243.67,53.32Z"/><path class="cls-4" d="M228.69,48.24c-.19.14-.55,0-1-.17a10.67,10.67,0,0,0-1.72-.54,9.94,9.94,0,0,0-1.8-.19c-.49,0-.87-.05-1-.26s.1-.58.67-.9a3.83,3.83,0,0,1,4.6,1C228.83,47.67,228.87,48.1,228.69,48.24Z"/><path class="cls-4" d="M247.78,46.08A22.17,22.17,0,0,1,234.31,43c-4.5-2.67-9.87-4.21-11.14-3.35s-1.87,5.65-6.6,6.71c0,0-.35,9.22-4,8.62s-.32-14.66-.32-14.66l9.28-3.72,9.92-1.14,9.16.67L249,39.38Z"/></g><g id="Plants"><path class="cls-5" d="M44.25,306.89c-8-12.16-6.79-29.54,2.7-40.54,2.95-3.41,7.07-6.38,11.57-6s8.31,4.34,9.71,8.74.91,9.17.09,13.71c-1.15,6.37-3.08,12.88-7.5,17.6s-10.9,9.59-16.57,6.48"/><path class="cls-5" d="M48.65,365.44a18.16,18.16,0,0,1,5.06-20.64c1.83-1.49,4.22-2.65,6.5-2s3.89,3,4.21,5.38a14.92,14.92,0,0,1-1.19,7.07c-1.17,3.18-2.75,6.36-5.46,8.39s-6.48,3.95-9.12,1.84"/><path class="cls-5" d="M29.47,361.26a26.29,26.29,0,0,0-13.26-27.75c-3-1.58-6.76-2.51-9.81-1S1.77,337.91,2,341.39s1.92,6.71,3.77,9.68c2.6,4.15,5.78,8.19,10.21,10.28s10.35,3.68,13.47-.09"/><path class="cls-5" d="M30.85,332.11c3.81-12.29-2.65-27.19-13.41-34.24-3.34-2.19-7.57-3.71-11.3-2.29s-6,5.72-6.13,9.81,1.45,8,3.26,11.69c2.52,5.13,5.75,10.21,10.66,13.15s12.84,5.9,16.92,1.88"/><path class="cls-4" d="M38.49,392.16a3.22,3.22,0,0,1-.12-.6c-.07-.44-.15-1-.26-1.71,0-.38-.11-.79-.17-1.24s-.18-.94-.28-1.46c-.2-1-.41-2.24-.75-3.54l-.49-2.05-.65-2.19c-.41-1.53-1-3.11-1.58-4.79a91.83,91.83,0,0,0-4.74-10.51,92.14,92.14,0,0,0-6.15-9.77c-1.08-1.4-2.06-2.78-3.11-4l-1.47-1.74c-.5-.54-1-1-1.43-1.55-.9-1-1.78-1.84-2.54-2.58l-1.06-1-.94-.83-1.29-1.16A2.47,2.47,0,0,1,11,341a2.38,2.38,0,0,1,.5.36l1.35,1.08,1,.8,1.1,1c.78.72,1.69,1.54,2.6,2.54L19,348.32l1.5,1.74c1.07,1.18,2.07,2.55,3.17,3.95a89.81,89.81,0,0,1,6.22,9.81,87.71,87.71,0,0,1,4.73,10.6c.56,1.69,1.15,3.28,1.55,4.82.21.77.42,1.51.61,2.22s.32,1.4.47,2.06c.32,1.32.5,2.52.68,3.58.08.53.16,1,.24,1.48s.09.86.13,1.24c.06.71.11,1.28.15,1.73A2,2,0,0,1,38.49,392.16Z"/><path class="cls-4" d="M38.21,394.37a1.61,1.61,0,0,1,0-.25c0-.19,0-.42.06-.71.06-.67.14-1.58.25-2.73.06-.6.12-1.25.19-2s.08-1.51.12-2.35c.06-1.69.23-3.61.17-5.74,0-1.06,0-2.17,0-3.33s-.12-2.37-.18-3.61c-.08-2.5-.42-5.15-.72-7.95a126,126,0,0,0-3.77-17.86,125.47,125.47,0,0,0-6.58-17c-1.28-2.51-2.44-4.91-3.73-7.06-.63-1.07-1.19-2.14-1.82-3.12s-1.23-1.91-1.8-2.81c-1.11-1.81-2.29-3.33-3.27-4.72-.49-.68-.94-1.33-1.38-1.9l-1.23-1.55c-.72-.91-1.29-1.62-1.7-2.15l-.43-.57a.94.94,0,0,1-.14-.2s.07.05.18.17l.47.53,1.77,2.09,1.28,1.52c.45.57.91,1.21,1.42,1.89,1,1.37,2.2,2.88,3.34,4.69l1.84,2.8c.63,1,1.2,2,1.85,3.12,1.31,2.14,2.49,4.55,3.78,7.06a122,122,0,0,1,6.65,17.1,121.48,121.48,0,0,1,3.74,17.95c.29,2.81.62,5.47.68,8,.05,1.26.15,2.46.15,3.63s0,2.28,0,3.35c0,2.13-.15,4.06-.24,5.75-.06.84-.09,1.63-.16,2.35s-.17,1.37-.24,2c-.15,1.15-.26,2.06-.35,2.72,0,.29-.08.52-.1.71A.81.81,0,0,1,38.21,394.37Z"/><path class="cls-4" d="M58.92,275.05a1.71,1.71,0,0,1-.11.22l-.34.64-1.36,2.43c-.29.53-.64,1.1-1,1.75s-.68,1.38-1.06,2.14l-1.23,2.46c-.41.88-.81,1.83-1.24,2.81s-.91,2-1.35,3.11-.86,2.24-1.32,3.42l-.69,1.81c-.21.62-.43,1.25-.64,1.89-.44,1.28-.88,2.6-1.33,3.95-1.69,5.45-3.29,11.52-4.64,18S40.41,332.31,39.74,338s-1,10.8-1.13,15.12c-.11,2.16-.13,4.11-.14,5.82s0,3.2,0,4.4,0,2.11,0,2.79v.72a.72.72,0,0,1,0,.25,1.79,1.79,0,0,1,0-.25c0-.19,0-.43-.05-.72,0-.68-.08-1.61-.14-2.78s-.09-2.69-.09-4.41,0-3.67.06-5.83c.07-4.33.46-9.47,1-15.16s1.55-11.91,2.86-18.39,3-12.55,4.69-18l1.35-3.95c.23-.64.44-1.27.66-1.89s.47-1.22.71-1.81c.46-1.18.92-2.33,1.35-3.43s.94-2.11,1.38-3.1.86-1.93,1.28-2.81l1.27-2.44c.4-.76.76-1.47,1.1-2.13s.72-1.21,1-1.73l1.44-2.38.39-.61C58.86,275.11,58.91,275,58.92,275.05Z"/><path class="cls-4" d="M56.21,349.68a10.61,10.61,0,0,1-.84,1.49c-.58.93-1.38,2.3-2.32,4s-2,3.81-3,6.18a82.72,82.72,0,0,0-2.92,7.89,81.13,81.13,0,0,0-2,8.17c-.48,2.54-.81,4.85-1,6.8s-.31,3.53-.36,4.63a9.29,9.29,0,0,1-.14,1.7,12.82,12.82,0,0,1-.06-1.71c0-1.1,0-2.69.19-4.65a68.92,68.92,0,0,1,.9-6.86,70.69,70.69,0,0,1,5-16.16A67.24,67.24,0,0,1,52.73,355c1-1.71,1.83-3.06,2.47-3.95A10.25,10.25,0,0,1,56.21,349.68Z"/><polygon class="cls-9" points="22.88 386.69 57.81 386.69 53.58 422.36 27.23 422.36 22.88 386.69"/><polygon class="cls-4" points="24.15 418.51 27.12 422.36 53.58 422.36 56.63 418.63 24.15 418.51"/><path class="cls-8" d="M56.45,397.18c0,.14-7.25.26-16.19.26s-16.19-.12-16.19-.26,7.24-.26,16.19-.26S56.45,397,56.45,397.18Z"/><path class="cls-8" d="M56.45,399.55c0,.15-7.25.26-16.19.26s-16.19-.11-16.19-.26,7.24-.26,16.19-.26S56.45,399.41,56.45,399.55Z"/><path class="cls-8" d="M56,401.85c0,.15-7,.26-15.62.26s-15.63-.11-15.63-.26,7-.26,15.63-.26S56,401.71,56,401.85Z"/><path class="cls-5" d="M399.59,396.23a15.88,15.88,0,0,1,9.84-1.2,8.24,8.24,0,0,1,4.86,2.17c1.21,1.34,1.44,3.7,0,4.86a4.65,4.65,0,0,1-3.07.77c-2.6,0-5.49-.48-7.56,1.08-1.19.89-2,2.38-3.4,2.82a3.34,3.34,0,0,1-3.68-1.64,5.73,5.73,0,0,1-.42-4.23A6.44,6.44,0,0,1,399.59,396.23Z"/><path class="cls-5" d="M392.73,383c1.83,2.62,5.39,1.75,7,.16s2.34-3.91,3-6.12c1.45-5,2.91-10.32,1.83-15.45a8.57,8.57,0,0,0-2-4.2,4.49,4.49,0,0,0-4.25-1.42c-1.8.48-2.91,2.23-3.72,3.9A36.87,36.87,0,0,0,391,375.67c0,2.55.29,5.22,1.73,7.32"/><path class="cls-5" d="M387.7,386.74a9.48,9.48,0,0,0,1.48-8.75,16.86,16.86,0,0,0-5.18-7.52,28,28,0,0,0-9.28-5.48,10,10,0,0,0-4.18-.71,4.4,4.4,0,0,0-3.5,2.12c-1,1.87,0,4.13,1,6a71.48,71.48,0,0,0,6.1,9.29c1.83,2.35,3.92,4.68,6.7,5.74s5.68.94,7.16-1"/><path class="cls-4" d="M392.61,422.42a5.89,5.89,0,0,0,.16-1.19c.08-.86.19-2,.32-3.24a46.45,46.45,0,0,1,.73-4.75,35.54,35.54,0,0,1,1.72-5.61,20.78,20.78,0,0,1,2.87-5.08,10.6,10.6,0,0,1,3.62-3,10.15,10.15,0,0,1,3.05-1,6.23,6.23,0,0,0,1.18-.17,5,5,0,0,0-1.2,0,9,9,0,0,0-3.18.83,10.66,10.66,0,0,0-3.82,3,20.12,20.12,0,0,0-3,5.18,34.82,34.82,0,0,0-1.72,5.71,40.41,40.41,0,0,0-.63,4.81c-.1,1.38-.14,2.49-.16,3.26A4.69,4.69,0,0,0,392.61,422.42Z"/><path class="cls-4" d="M392.83,419.93a2,2,0,0,0,0-.55V417.8c0-1.37,0-3.35.07-5.79.12-4.89.54-10.15,1.35-17.57.77-7,1.8-15.09,2.89-20.36.24-1.2.47-2.28.7-3.23s.39-1.76.56-2.43.27-1.13.37-1.53a3.08,3.08,0,0,0,.1-.54,1.74,1.74,0,0,0-.2.52c-.12.39-.27.89-.45,1.51s-.41,1.46-.65,2.41-.51,2-.76,3.21a178.7,178.7,0,0,0-3,18.9c-.81,7.44-1.18,14.2-1.21,19.1,0,2.45,0,4.44.09,5.81,0,.64.07,1.16.09,1.57A2.22,2.22,0,0,0,392.83,419.93Z"/><path class="cls-4" d="M392.86,406.88a9.54,9.54,0,0,0,0-1.65c-.06-1.06-.21-2.59-.5-4.46a58.38,58.38,0,0,0-1.46-6.5,53.12,53.12,0,0,0-2.71-7.69,41.17,41.17,0,0,0-8-12.43,22,22,0,0,0-1.88-1.74c-.29-.24-.54-.49-.8-.68l-.73-.5a10.43,10.43,0,0,0-1.39-.89,49.83,49.83,0,0,1,4.55,4.05,43.2,43.2,0,0,1,7.78,12.39,62.41,62.41,0,0,1,2.73,7.61,64.82,64.82,0,0,1,1.54,6.44c.34,1.85.54,3.37.66,4.41A12.21,12.21,0,0,0,392.86,406.88Z"/></g><g id="Books"><path class="cls-5" d="M99.84,158l2,2.48s9.59-15.37,20.73-17h0a2.16,2.16,0,0,0,2-.07l3.6-2.09a2.17,2.17,0,0,0,1-2.24h0s5.37-9.53,16.82-11l4.18-.8L121.43,101,76.69,119.14Z"/><path class="cls-3" d="M95.1,155.9l3.39,4.54s7.81-17.62,27.24-18.85l-19.12-19.77S92.81,150.47,95.1,155.9Z"/><path class="cls-1" d="M68.92,124.26s7.41-23.91,32-15.16l24.85,32.49S100.28,137,94.29,158Z"/><path class="cls-3" d="M125.73,141.59s7.68-18.79,24.45-16.48L125.73,96.69l-24,13.53Z"/><path class="cls-1" d="M100.88,109.14s-2.79-14.21,8.18-20.4L116.25,85l25.15,28.16s-17.37,9.5-15.67,28.47Z"/><path class="cls-4" d="M125.73,141.59a9.79,9.79,0,0,1-1-1.22c-.7-.89-1.6-2.05-2.7-3.44l-8.8-11.41c-3.42-4.41-6.52-8.4-8.83-11.39l-2.69-3.44a8.55,8.55,0,0,1-.94-1.3,12.45,12.45,0,0,1,1.1,1.17c.68.78,1.64,1.92,2.82,3.34,2.35,2.85,5.52,6.84,8.95,11.3s6.5,8.53,8.69,11.51l2.56,3.53A9.36,9.36,0,0,1,125.73,141.59Z"/><path class="cls-4" d="M116.79,93.28a25.7,25.7,0,0,0-2.88,1.34,19.43,19.43,0,0,0-5.55,5.19,19,19,0,0,0-3.27,6.85c-.43,1.91-.37,3.15-.48,3.15a3.1,3.1,0,0,1-.08-.86,11.23,11.23,0,0,1,.2-2.36,17.46,17.46,0,0,1,3.21-7.09,18,18,0,0,1,5.79-5.2,10.57,10.57,0,0,1,2.2-.89A3.44,3.44,0,0,1,116.79,93.28Z"/><path class="cls-4" d="M129.18,105.17c0,.09-1.13.61-2.79,1.8a20.56,20.56,0,0,0-2.69,2.35,20.51,20.51,0,0,0-4.59,7.37,20.67,20.67,0,0,0-.9,3.46c-.34,2-.29,3.29-.39,3.29a3,3,0,0,1-.09-.89,7.45,7.45,0,0,1,0-1.06,10.72,10.72,0,0,1,.11-1.4,18.55,18.55,0,0,1,.82-3.56,19.64,19.64,0,0,1,4.69-7.55,19,19,0,0,1,2.83-2.31,11.16,11.16,0,0,1,1.2-.72,7.48,7.48,0,0,1,1-.47C128.86,105.25,129.16,105.13,129.18,105.17Z"/><path class="cls-4" d="M133.19,108.56c0,.09-1.24.65-3,2a25.39,25.39,0,0,0-2.92,2.58,30.11,30.11,0,0,0-3,3.72A28.45,28.45,0,0,0,122,121a21,21,0,0,0-1.2,3.7c-.48,2.17-.41,3.56-.51,3.56a3.07,3.07,0,0,1-.09-1,7.91,7.91,0,0,1,0-1.15,10.15,10.15,0,0,1,.2-1.51,19.59,19.59,0,0,1,1.11-3.81,25.38,25.38,0,0,1,5.37-8,22,22,0,0,1,3-2.55,13.79,13.79,0,0,1,1.29-.81,7.05,7.05,0,0,1,1-.52A3.08,3.08,0,0,1,133.19,108.56Z"/><path class="cls-4" d="M135.7,111.77c0,.09-1.24.65-3,2a24.07,24.07,0,0,0-2.86,2.66,27.42,27.42,0,0,0-5,8.1,23.38,23.38,0,0,0-1.12,3.74c-.45,2.19-.38,3.59-.49,3.59a4.08,4.08,0,0,1-.08-1,6.7,6.7,0,0,1,0-1.16,10.2,10.2,0,0,1,.18-1.52,20.75,20.75,0,0,1,1-3.84,28.56,28.56,0,0,1,2.16-4.38,27.9,27.9,0,0,1,3-3.87,20.54,20.54,0,0,1,3-2.63,11.57,11.57,0,0,1,1.28-.84,7.39,7.39,0,0,1,1-.54A3.49,3.49,0,0,1,135.7,111.77Z"/><path class="cls-4" d="M115,136.33c0,.09-1.39-.38-3.68-.58a18.6,18.6,0,0,0-15.9,6.51c-1.49,1.75-2.13,3.05-2.22,3a3.26,3.26,0,0,1,.41-.93,15.8,15.8,0,0,1,1.52-2.3,17.82,17.82,0,0,1,16.23-6.65,15.54,15.54,0,0,1,2.7.57A3.39,3.39,0,0,1,115,136.33Z"/><path class="cls-4" d="M111.66,132.23c0,.09-1.39-.38-3.68-.58a18.56,18.56,0,0,0-15.91,6.51c-1.49,1.75-2.13,3.05-2.21,3a3.26,3.26,0,0,1,.41-.93,15.27,15.27,0,0,1,1.52-2.3A17.82,17.82,0,0,1,108,131.28a15.54,15.54,0,0,1,2.7.57A3.39,3.39,0,0,1,111.66,132.23Z"/><path class="cls-4" d="M108.37,128.13c0,.09-1.39-.38-3.68-.58a18.56,18.56,0,0,0-15.91,6.51c-1.49,1.75-2.13,3.05-2.21,3a3.24,3.24,0,0,1,.4-.93,16.33,16.33,0,0,1,1.53-2.3,17.82,17.82,0,0,1,16.23-6.65,15.54,15.54,0,0,1,2.7.57A3.39,3.39,0,0,1,108.37,128.13Z"/><path class="cls-4" d="M105.08,124c0,.09-1.4-.39-3.68-.59A18.57,18.57,0,0,0,85.49,130c-1.49,1.75-2.13,3-2.21,3a3.24,3.24,0,0,1,.4-.93,14.72,14.72,0,0,1,1.53-2.3,17.81,17.81,0,0,1,16.22-6.65,15.69,15.69,0,0,1,2.71.57A3.39,3.39,0,0,1,105.08,124Z"/><path class="cls-4" d="M101.79,119.92c0,.1-1.4-.38-3.69-.58a18.57,18.57,0,0,0-15.9,6.52c-1.49,1.75-2.13,3-2.22,3a3.52,3.52,0,0,1,.41-.93,15.27,15.27,0,0,1,1.52-2.3A17.85,17.85,0,0,1,98.14,119a15.54,15.54,0,0,1,2.7.57A3.61,3.61,0,0,1,101.79,119.92Z"/><path class="cls-4" d="M98.49,115.82c0,.1-1.39-.38-3.68-.58a18.57,18.57,0,0,0-15.9,6.52c-1.49,1.75-2.13,3-2.22,3a3,3,0,0,1,.41-.93,15.27,15.27,0,0,1,1.52-2.31,17.84,17.84,0,0,1,16.23-6.64,14.65,14.65,0,0,1,2.7.57A3.62,3.62,0,0,1,98.49,115.82Z"/><path class="cls-3" d="M107.63,110.8l6.86,7.62s2.14-10.55,11.47-14.55l-7.25-7.72A18,18,0,0,0,107.63,110.8Z"/><path class="cls-5" d="M132.27,33.72l-1,2.24s14.09,1.14,19.18,8.3h0a1.66,1.66,0,0,0,.78,1.39L154,47.4a1.69,1.69,0,0,0,1.92-.1h0A18.75,18.75,0,0,1,169.53,55l2.05,2.61,9.09-30.33L150.9,3.77Z"/><path class="cls-3" d="M132,29.7l-1.93,4s15-.89,22.82,12.14l6.86-20.34S134.94,26.17,132,29.7Z"/><path class="cls-1" d="M144.56.22s19.23-3.43,22,16.72L152.89,45.81S147,26.52,130.28,29.88Z"/><path class="cls-3" d="M152.89,45.81s15.78-1.4,20.18,11l11-27.13-18-11.79Z"/><path class="cls-1" d="M166.49,17s8.85-7,17.07-1.63L188.72,19,178.21,46.49s-12.8-8.64-25.34-.67Z"/><path class="cls-4" d="M152.89,45.81a5.46,5.46,0,0,1,.46-1.17c.37-.83.84-1.88,1.4-3.11,1.26-2.71,2.91-6.27,4.74-10.19l4.75-10.2,1.43-3.09a6,6,0,0,1,.59-1.11,5.78,5.78,0,0,1-.4,1.19c-.28.76-.73,1.84-1.29,3.16-1.12,2.65-2.75,6.29-4.61,10.27s-3.59,7.55-4.88,10.13c-.64,1.29-1.17,2.32-1.55,3A5.41,5.41,0,0,1,152.89,45.81Z"/><path class="cls-4" d="M183.54,21.72c-.06.08-.84-.54-2.26-1.25a16.69,16.69,0,0,0-5.93-1.63,16.44,16.44,0,0,0-6.11.68c-1.51.47-2.39,1-2.43.87s.18-.17.57-.4a10,10,0,0,1,1.74-.82,15,15,0,0,1,6.27-.85,14.77,14.77,0,0,1,6.06,1.83A10.13,10.13,0,0,1,183,21.23C183.38,21.52,183.56,21.69,183.54,21.72Z"/><path class="cls-4" d="M182.74,25c-.06.08-.85-.54-2.27-1.25a16.29,16.29,0,0,0-12-.95c-1.52.47-2.39,1-2.44.87s.19-.17.58-.4a9.63,9.63,0,0,1,1.74-.82,14.93,14.93,0,0,1,6.27-.85,14.67,14.67,0,0,1,6,1.83,9.67,9.67,0,0,1,1.59,1.08C182.58,24.84,182.76,25,182.74,25Z"/><path class="cls-4" d="M181.24,28.34c-.05.08-.84-.54-2.26-1.24a16.48,16.48,0,0,0-5.93-1.64,16.65,16.65,0,0,0-6.11.68c-1.51.48-2.38,1-2.43.88s.19-.18.58-.41a10.37,10.37,0,0,1,1.74-.82,14.88,14.88,0,0,1,12.32,1,10.34,10.34,0,0,1,1.59,1.08C181.09,28.14,181.27,28.32,181.24,28.34Z"/><path class="cls-4" d="M180.31,31.65c-.06.07-.85-.55-2.27-1.25a16.36,16.36,0,0,0-5.92-1.64,16.62,16.62,0,0,0-6.11.68c-1.52.48-2.39,1-2.44.88s.19-.18.58-.41a10.37,10.37,0,0,1,1.74-.82,14.87,14.87,0,0,1,12.32,1,10.34,10.34,0,0,1,1.59,1.08C180.15,31.44,180.33,31.62,180.31,31.65Z"/><path class="cls-4" d="M179.38,35.15c-.06.08-.85-.54-2.27-1.25a16.3,16.3,0,0,0-12-.95c-1.52.48-2.39,1-2.44.88s.19-.18.58-.41A10.37,10.37,0,0,1,165,32.6a14.9,14.9,0,0,1,6.27-.85,14.67,14.67,0,0,1,6.05,1.83,9.67,9.67,0,0,1,1.59,1.08C179.22,35,179.4,35.12,179.38,35.15Z"/><path class="cls-4" d="M178.46,39.15c-.06.07-.91-.6-2.47-1.34a19,19,0,0,0-2.83-1.08,24.48,24.48,0,0,0-3.63-.74,23.45,23.45,0,0,0-3.71-.09,18.22,18.22,0,0,0-3,.48c-1.67.43-2.62,1-2.67.89s.21-.19.64-.43a4.36,4.36,0,0,1,.81-.4,8.36,8.36,0,0,1,1.12-.41,14.59,14.59,0,0,1,3-.6,19.57,19.57,0,0,1,3.81,0,20.72,20.72,0,0,1,3.71.79,17.07,17.07,0,0,1,2.86,1.21,11,11,0,0,1,1,.61,7.82,7.82,0,0,1,.73.53C178.29,38.93,178.48,39.12,178.46,39.15Z"/><path class="cls-4" d="M177.13,42c0,.07-.91-.6-2.49-1.32a18.83,18.83,0,0,0-2.87-1,24,24,0,0,0-3.67-.61,22.91,22.91,0,0,0-3.72,0,18.91,18.91,0,0,0-3,.55c-1.67.46-2.62,1-2.67.91s.21-.19.64-.43a4.36,4.36,0,0,1,.81-.4,7.1,7.1,0,0,1,1.12-.43,15.47,15.47,0,0,1,3-.68,21.7,21.7,0,0,1,3.81-.07,21.39,21.39,0,0,1,3.76.67,16.21,16.21,0,0,1,2.9,1.15,8.19,8.19,0,0,1,1,.6,4.33,4.33,0,0,1,.73.52C177,41.82,177.16,42,177.13,42Z"/><path class="cls-4" d="M152.68,36.45c-.09,0-.27-1.09-1-2.74a15,15,0,0,0-4-5.57,14.83,14.83,0,0,0-6.15-3.1c-1.74-.42-2.86-.41-2.86-.5s.28-.07.79-.08a11.82,11.82,0,0,1,2.15.22,13.86,13.86,0,0,1,10.45,8.89,10.89,10.89,0,0,1,.55,2.09A2.26,2.26,0,0,1,152.68,36.45Z"/><path class="cls-4" d="M154.34,32.7c-.09,0-.26-1.1-1-2.74a14.6,14.6,0,0,0-10.18-8.67c-1.74-.42-2.87-.41-2.87-.5s.28-.07.79-.08a11.82,11.82,0,0,1,2.15.22,13.82,13.82,0,0,1,10.45,8.89,11.88,11.88,0,0,1,.56,2.09C154.37,32.41,154.38,32.7,154.34,32.7Z"/><path class="cls-4" d="M156,29c-.09,0-.27-1.1-1-2.75a14.5,14.5,0,0,0-10.18-8.66c-1.74-.42-2.86-.41-2.86-.51a2.18,2.18,0,0,1,.79-.07,11.82,11.82,0,0,1,2.15.22,13.86,13.86,0,0,1,10.45,8.89,11.48,11.48,0,0,1,.55,2.09A2.27,2.27,0,0,1,156,29Z"/><path class="cls-4" d="M157.67,25.2c-.09,0-.26-1.1-.95-2.75a15.1,15.1,0,0,0-4-5.57,14.92,14.92,0,0,0-6.15-3.09c-1.73-.42-2.86-.41-2.86-.51a2.18,2.18,0,0,1,.79-.07,11.82,11.82,0,0,1,2.15.22,13.82,13.82,0,0,1,10.45,8.89,11.66,11.66,0,0,1,.56,2.09A2.09,2.09,0,0,1,157.67,25.2Z"/><path class="cls-4" d="M159.34,21.45c-.09,0-.27-1.1-1-2.75A14.6,14.6,0,0,0,148.2,10c-1.74-.41-2.87-.41-2.86-.5a2.18,2.18,0,0,1,.79-.07,12.59,12.59,0,0,1,2.15.21,13.9,13.9,0,0,1,10.45,8.9,12.38,12.38,0,0,1,.55,2.09A2.27,2.27,0,0,1,159.34,21.45Z"/><path class="cls-4" d="M161,17.7c-.09,0-.26-1.1-.95-2.75a14.59,14.59,0,0,0-10.19-8.67c-1.73-.41-2.86-.41-2.86-.5a2.18,2.18,0,0,1,.79-.07,12.59,12.59,0,0,1,2.15.21A14.09,14.09,0,0,1,156.35,9a13.93,13.93,0,0,1,4,5.83,11.66,11.66,0,0,1,.56,2.09A2.39,2.39,0,0,1,161,17.7Z"/><path class="cls-5" d="M317.17,128.67l-1.68,2.66s17.69,3.92,22.89,13.9h0a2.2,2.2,0,0,0,.75,1.91l3.17,2.7a2.16,2.16,0,0,0,2.45.2h0s10.77,1.89,16,12.2l2.15,3.67L379.75,129,346.07,93.91Z"/><path class="cls-3" d="M317.54,123.51l-3.15,4.71s19.21,1.5,26.85,19.41L353.5,123S321.89,119.54,317.54,123.51Z"/><path class="cls-1" d="M338.65,88.29s25-1,25,25.09l-22.36,34.25s-4.16-25.52-25.91-24.19Z"/><path class="cls-3" d="M341.24,147.63s20.27,1,23.67,17.56l18.66-32.52-20.74-18.11Z"/><path class="cls-1" d="M363.56,113.39s12.46-7.37,21.95.92l5.92,5.53-18.17,33.09s-14.74-13.21-32.06-5.29Z"/><path class="cls-4" d="M341.24,147.63a8.41,8.41,0,0,1,.8-1.39l2.34-3.69c2.06-3.17,4.8-7.41,7.83-12.1l7.8-12.12,2.34-3.68a9.56,9.56,0,0,1,.91-1.32,8.64,8.64,0,0,1-.73,1.43c-.5.9-1.26,2.18-2.21,3.77-1.9,3.16-4.61,7.48-7.67,12.21s-5.88,9-8,12l-2.48,3.6A10.17,10.17,0,0,1,341.24,147.63Z"/><path class="cls-4" d="M384.37,122.43c-.07.07-.95-.87-2.63-2a20.26,20.26,0,0,0-3.11-1.76,20.67,20.67,0,0,0-8.48-1.86,20.49,20.49,0,0,0-3.56.29c-2,.35-3.2.83-3.23.74s.27-.17.81-.39a6,6,0,0,1,1-.35,10.84,10.84,0,0,1,1.35-.36,18.56,18.56,0,0,1,3.63-.41,20.8,20.8,0,0,1,4.45.45,21.08,21.08,0,0,1,4.24,1.46A18.33,18.33,0,0,1,382,120.1c.42.3.76.63,1.08.9a7.78,7.78,0,0,1,.76.73A3.25,3.25,0,0,1,384.37,122.43Z"/><path class="cls-4" d="M382.77,126.5c-.07.07-.95-.86-2.63-2a20.24,20.24,0,0,0-3.11-1.77,23.64,23.64,0,0,0-4.14-1.38,22.85,22.85,0,0,0-4.34-.48,20.32,20.32,0,0,0-3.56.3c-2,.35-3.2.83-3.24.73a3.3,3.3,0,0,1,.82-.39,7.81,7.81,0,0,1,1-.35,13.86,13.86,0,0,1,1.36-.36,18.47,18.47,0,0,1,3.63-.41,21.59,21.59,0,0,1,4.45.45,21.85,21.85,0,0,1,4.23,1.46,18.18,18.18,0,0,1,3.12,1.9,10.7,10.7,0,0,1,1.08.89,6.81,6.81,0,0,1,.76.73A3.15,3.15,0,0,1,382.77,126.5Z"/><path class="cls-4" d="M380.29,130.43c-.07.07-1-.86-2.63-2a20.26,20.26,0,0,0-3.11-1.76,21.61,21.61,0,0,0-4.14-1.38,22.81,22.81,0,0,0-4.34-.49,20.5,20.5,0,0,0-3.56.3c-2,.35-3.2.83-3.23.73a3.09,3.09,0,0,1,.81-.39,8.66,8.66,0,0,1,1-.35,10.93,10.93,0,0,1,1.35-.35,18.5,18.5,0,0,1,3.63-.42,21,21,0,0,1,4.46.46,21.2,21.2,0,0,1,4.23,1.45,18.58,18.58,0,0,1,3.12,1.9A10.7,10.7,0,0,1,379,129a7.78,7.78,0,0,1,.76.74C380.11,130.16,380.32,130.41,380.29,130.43Z"/><path class="cls-4" d="M342.6,135.71c-.09,0-.1-1.44-.67-3.66a18.57,18.57,0,0,0-11.45-12.83c-2.14-.82-3.58-1-3.56-1.09a3.35,3.35,0,0,1,1,.08,14.72,14.72,0,0,1,2.68.67A17.81,17.81,0,0,1,342.28,132a14.46,14.46,0,0,1,.36,2.74A2.77,2.77,0,0,1,342.6,135.71Z"/><path class="cls-4" d="M345.37,131.24c-.09,0-.1-1.44-.67-3.66a18.58,18.58,0,0,0-11.44-12.83c-2.15-.82-3.59-1-3.57-1.09a3.35,3.35,0,0,1,1,.08,14.72,14.72,0,0,1,2.68.67,17.81,17.81,0,0,1,11.67,13.08,15.53,15.53,0,0,1,.37,2.74A2.88,2.88,0,0,1,345.37,131.24Z"/><path class="cls-4" d="M348.15,126.77c-.1,0-.11-1.44-.68-3.66A18.58,18.58,0,0,0,336,110.28c-2.15-.82-3.59-1-3.57-1.09a3.35,3.35,0,0,1,1,.08,14.72,14.72,0,0,1,2.68.67A17.85,17.85,0,0,1,347.83,123a16.33,16.33,0,0,1,.36,2.74A3.48,3.48,0,0,1,348.15,126.77Z"/><path class="cls-4" d="M350.92,122.3c-.1,0-.11-1.44-.68-3.66a18.58,18.58,0,0,0-11.44-12.83c-2.15-.82-3.58-1-3.57-1.09a3.35,3.35,0,0,1,1,.08,14.53,14.53,0,0,1,2.68.67,17.85,17.85,0,0,1,11.68,13.08,16.33,16.33,0,0,1,.36,2.74A3.48,3.48,0,0,1,350.92,122.3Z"/><path class="cls-4" d="M353.69,117.83c-.1,0-.11-1.44-.68-3.66a18.58,18.58,0,0,0-11.44-12.83c-2.15-.82-3.58-1-3.57-1.09a3.35,3.35,0,0,1,1,.08,14.53,14.53,0,0,1,2.68.67,17.85,17.85,0,0,1,11.68,13.08,16.33,16.33,0,0,1,.36,2.74A3.48,3.48,0,0,1,353.69,117.83Z"/><path class="cls-4" d="M356.46,113.36c-.1,0-.11-1.44-.68-3.66a18.58,18.58,0,0,0-11.44-12.83c-2.15-.82-3.58-1-3.57-1.09a3.42,3.42,0,0,1,1,.08,14.66,14.66,0,0,1,2.67.67,17.85,17.85,0,0,1,11.68,13.08,16.33,16.33,0,0,1,.36,2.74A3.48,3.48,0,0,1,356.46,113.36Z"/><path class="cls-3" d="M358.5,130.43,352,139.88s10-1.18,18.7,4.37l6-10.12s-9.24-7.25-18.22-3.7"/></g><g id="Hearts"><path class="cls-5" d="M298.05,17.79a7.43,7.43,0,0,0-.58-4.4,7.1,7.1,0,0,0-2.82-3.3,5.83,5.83,0,0,0-4.53-.53,5.66,5.66,0,0,0-2.37,1.4,5.74,5.74,0,0,0-1.06-2.28,5.86,5.86,0,0,0-4-2.21,7.09,7.09,0,0,0-4.22,1,7.33,7.33,0,0,0-3,3.23,8.93,8.93,0,0,0-.63,5.6,12.56,12.56,0,0,0,2.91,5.25c2.19,2.52,5.11,5.73,5.11,5.73s3.77-1.29,7-2.05a12.68,12.68,0,0,0,5.43-2.56A9,9,0,0,0,298.05,17.79Z"/><path class="cls-5" d="M276.26,44.42A3.66,3.66,0,0,0,273,42.08a2.78,2.78,0,0,0-2,.88,2.65,2.65,0,0,0-.63,1.15,2.79,2.79,0,0,0-1-.68,2.73,2.73,0,0,0-2.17.06,3.32,3.32,0,0,0-1.48,1.44,3.48,3.48,0,0,0-.46,2.06,4.2,4.2,0,0,0,1.09,2.45,6,6,0,0,0,2.47,1.45c1.51.51,3.48,1.12,3.48,1.12s1.23-1.44,2.38-2.54a6.11,6.11,0,0,0,1.61-2.36A4.27,4.27,0,0,0,276.26,44.42Z"/><path class="cls-5" d="M134.44,192.09a3.52,3.52,0,0,0-.22-2.1,3.44,3.44,0,0,0-1.3-1.61,2.71,2.71,0,0,0-3.3.34,2.72,2.72,0,0,0-.48-1.1,2.76,2.76,0,0,0-1.87-1.1,3.33,3.33,0,0,0-2,.44,3.56,3.56,0,0,0-1.49,1.51,4.28,4.28,0,0,0-.36,2.66,6.1,6.1,0,0,0,1.32,2.53c1,1.23,2.37,2.79,2.37,2.79s1.81-.57,3.36-.9a6.07,6.07,0,0,0,2.62-1.15A4.29,4.29,0,0,0,134.44,192.09Z"/><path class="cls-5" d="M333.07,193.31a2.2,2.2,0,0,0-.82-1,2.13,2.13,0,0,0-1.23-.43,1.8,1.8,0,0,0-1.25.55,1.73,1.73,0,0,0-.39.73,1.87,1.87,0,0,0-.62-.43,1.76,1.76,0,0,0-1.37,0,2.13,2.13,0,0,0-.93.9,2.21,2.21,0,0,0-.29,1.3,2.69,2.69,0,0,0,.69,1.54,3.79,3.79,0,0,0,1.55.91c.95.32,2.19.7,2.19.7s.77-.9,1.49-1.59a3.7,3.7,0,0,0,1-1.49A2.71,2.71,0,0,0,333.07,193.31Z"/><path class="cls-5" d="M145.45,159.73a2.31,2.31,0,0,0-2-1.47,1.74,1.74,0,0,0-1.25.55,1.76,1.76,0,0,0-.4.72,1.71,1.71,0,0,0-.61-.42,1.76,1.76,0,0,0-1.37,0,2.15,2.15,0,0,0-.93.91,2.18,2.18,0,0,0-.29,1.29,2.72,2.72,0,0,0,.69,1.55,3.79,3.79,0,0,0,1.55.91l2.19.7s.77-.91,1.49-1.6a3.73,3.73,0,0,0,1-1.48A2.71,2.71,0,0,0,145.45,159.73Z"/><path class="cls-5" d="M320.75,33.82a2.2,2.2,0,0,0-.82-1,2.13,2.13,0,0,0-1.23-.43,1.8,1.8,0,0,0-1.25.55,1.85,1.85,0,0,0-.39.73,1.74,1.74,0,0,0-.62-.43,1.76,1.76,0,0,0-1.37,0,2.13,2.13,0,0,0-.93.9,2.21,2.21,0,0,0-.29,1.3,2.69,2.69,0,0,0,.69,1.54,3.79,3.79,0,0,0,1.55.91c1,.32,2.19.7,2.19.7s.77-.9,1.49-1.59a3.84,3.84,0,0,0,1-1.49A2.71,2.71,0,0,0,320.75,33.82Z"/><path class="cls-5" d="M318.76,169.6a6.43,6.43,0,0,0-.93-3.74,6.18,6.18,0,0,0-2.77-2.56,5,5,0,0,0-5.87,1.44,5.11,5.11,0,0,0-1.14-1.86,5.05,5.05,0,0,0-3.67-1.5,6.1,6.1,0,0,0-3.53,1.31,6.43,6.43,0,0,0-2.3,3.1,7.89,7.89,0,0,0,0,4.9,11.1,11.1,0,0,0,3,4.24c2.15,1.95,5,4.43,5,4.43s3.12-1.49,5.85-2.48a11.11,11.11,0,0,0,4.43-2.76A7.76,7.76,0,0,0,318.76,169.6Z"/></g></g></svg>