<svg xmlns="http://www.w3.org/2000/svg" viewBox="0 0 50.87 86.27"><defs><style>.cls-1{fill:#222221;}</style></defs><g id="Layer_2" data-name="Layer 2"><g id="Elements"><path class="cls-1" d="M25,40.68a18.21,18.21,0,0,1-8.85-2c-2.36-1.15-2.27-1.4-3.75,1.27-2.28,4.09-4,8.07-4.23,12.76-.12,3.32.48,6.48,2.83,9,2.55,2.79,9.78,6.6,13.63,6.39-1.42-3.08-1.61-7-2-10.33-.32-2.54-.87-9.45,3.68-6,3.07,2.32,3.51,8.63,4.72,12.06a38.53,38.53,0,0,0,2.17,5.28c.87,1.64,2.44,3,2.26,5-.31,3.36-5.88,5-8.34,6.59s-8,6.73-11.36,5.17c-8-3.67,8.58-11,8.21-12-.46-1.19-7.74-1.19-9.25-1.58A20.37,20.37,0,0,1,3.88,65.76C-1.37,59.28-.64,49.9,2.23,42.6a41.42,41.42,0,0,1,2.88-5.82c.87-1.5,2.72-3.37,3.13-5s-.45-3.09-.77-4.57a15.8,15.8,0,0,1,0-6.81c1.57-7.72,6.5-15.31,13.61-19,1.55-.8,4-1.86,5.73-1,.92.46,2.49,2.34,1.27,3.2-.33.24-2.26-.58-2.92-.47-1.71.31-3.56,2.19-4.72,3.37C16.62,10.36,9.92,20.13,12.94,26c-.29-.56,7.12-6.07,7.93-6.66a41.45,41.45,0,0,1,8.26-4.9c5.6-2.31,13.47-3.68,18.49.58C59.83,25.4,34.37,41.47,25,40.68,21.68,40.81,26.78,40.83,25,40.68ZM44.37,21.31c1.19-5.37-12.46-.39-14,.4-2.24,1.19-13.16,7.8-12.63,11,.25,1.5,6.26,2,7.56,2a21.25,21.25,0,0,0,7.64-2c3-1.3,12.66-7.33,11.39-11.48C44.59,20.31,44.7,22.38,44.37,21.31Z"/></g></g></svg>